<mxfile host="Electron" agent="Mozilla/5.0 (Windows NT 10.0; Win64; x64) AppleWebKit/537.36 (KHTML, like Gecko) draw.io/26.0.3 Chrome/130.0.6723.137 Electron/33.2.1 Safari/537.36" version="26.0.3" pages="3">
  <diagram name="Page-1" id="q3BidN-wKB8RUHod7Alv">
    <mxGraphModel dx="1050" dy="621" grid="1" gridSize="10" guides="1" tooltips="1" connect="1" arrows="1" fold="1" page="1" pageScale="1" pageWidth="850" pageHeight="1100" math="0" shadow="0">
      <root>
        <mxCell id="0" />
        <mxCell id="1" parent="0" />
        <mxCell id="aFUoNAKu_UtgZ4Ta6rwr-1" value="Configure ACI&#39;s" style="rounded=1;whiteSpace=wrap;html=1;" vertex="1" parent="1">
          <mxGeometry x="120" y="120" width="120" height="60" as="geometry" />
        </mxCell>
        <mxCell id="aFUoNAKu_UtgZ4Ta6rwr-3" value="Sensor detects thread" style="rounded=1;whiteSpace=wrap;html=1;" vertex="1" parent="1">
          <mxGeometry x="120" y="230" width="120" height="60" as="geometry" />
        </mxCell>
        <mxCell id="aFUoNAKu_UtgZ4Ta6rwr-4" value="ACI triggered" style="rounded=1;whiteSpace=wrap;html=1;" vertex="1" parent="1">
          <mxGeometry x="120" y="340" width="120" height="60" as="geometry" />
        </mxCell>
        <mxCell id="aFUoNAKu_UtgZ4Ta6rwr-5" value="ACI" style="rounded=1;whiteSpace=wrap;html=1;verticalAlign=top;" vertex="1" parent="1">
          <mxGeometry x="500" y="160" width="290" height="200" as="geometry" />
        </mxCell>
        <mxCell id="aFUoNAKu_UtgZ4Ta6rwr-6" value="Sensor list" style="rounded=1;whiteSpace=wrap;html=1;" vertex="1" parent="1">
          <mxGeometry x="520" y="200" width="120" height="30" as="geometry" />
        </mxCell>
        <mxCell id="aFUoNAKu_UtgZ4Ta6rwr-7" value="Sensor activation rule" style="rounded=1;whiteSpace=wrap;html=1;" vertex="1" parent="1">
          <mxGeometry x="650" y="200" width="120" height="30" as="geometry" />
        </mxCell>
        <mxCell id="aFUoNAKu_UtgZ4Ta6rwr-8" value="Alert rules" style="rounded=1;whiteSpace=wrap;html=1;" vertex="1" parent="1">
          <mxGeometry x="520" y="250" width="250" height="30" as="geometry" />
        </mxCell>
        <mxCell id="aFUoNAKu_UtgZ4Ta6rwr-9" value="IP meta extraction rules" style="rounded=1;whiteSpace=wrap;html=1;" vertex="1" parent="1">
          <mxGeometry x="520" y="300" width="250" height="30" as="geometry" />
        </mxCell>
        <mxCell id="aFUoNAKu_UtgZ4Ta6rwr-10" value="Notify CA" style="rounded=1;whiteSpace=wrap;html=1;" vertex="1" parent="1">
          <mxGeometry x="120" y="460" width="120" height="60" as="geometry" />
        </mxCell>
        <mxCell id="aFUoNAKu_UtgZ4Ta6rwr-11" value="Review Threat" style="rounded=1;whiteSpace=wrap;html=1;" vertex="1" parent="1">
          <mxGeometry x="120" y="580" width="120" height="60" as="geometry" />
        </mxCell>
      </root>
    </mxGraphModel>
  </diagram>
  <diagram id="DvcHscQuMLoFxf0w6bSB" name="Threat Detection Workflow">
    <mxGraphModel dx="1185" dy="683" grid="1" gridSize="10" guides="1" tooltips="1" connect="1" arrows="1" fold="1" page="1" pageScale="1" pageWidth="850" pageHeight="1100" math="0" shadow="0">
      <root>
        <mxCell id="0" />
        <mxCell id="1" parent="0" />
        <mxCell id="yQlT2WHKgpOTcxXvtKPG-2" value="" style="ellipse;html=1;shape=startState;fillColor=#000000;strokeColor=#ff0000;" vertex="1" parent="1">
          <mxGeometry x="180" y="120" width="30" height="30" as="geometry" />
        </mxCell>
        <mxCell id="yQlT2WHKgpOTcxXvtKPG-3" value="" style="edgeStyle=orthogonalEdgeStyle;html=1;verticalAlign=bottom;endArrow=open;endSize=8;strokeColor=#ff0000;rounded=0;entryX=0.5;entryY=0;entryDx=0;entryDy=0;" edge="1" source="yQlT2WHKgpOTcxXvtKPG-2" parent="1" target="yQlT2WHKgpOTcxXvtKPG-9">
          <mxGeometry relative="1" as="geometry">
            <mxPoint x="195" y="210" as="targetPoint" />
          </mxGeometry>
        </mxCell>
        <mxCell id="yQlT2WHKgpOTcxXvtKPG-9" value="Scan network packages" style="rounded=1;whiteSpace=wrap;html=1;arcSize=40;fontColor=#000000;fillColor=#ffffc0;strokeColor=#ff0000;" vertex="1" parent="1">
          <mxGeometry x="135" y="200" width="120" height="40" as="geometry" />
        </mxCell>
        <mxCell id="yQlT2WHKgpOTcxXvtKPG-10" value="" style="edgeStyle=orthogonalEdgeStyle;html=1;verticalAlign=bottom;endArrow=open;endSize=8;strokeColor=#ff0000;rounded=0;entryX=0.5;entryY=0;entryDx=0;entryDy=0;" edge="1" source="yQlT2WHKgpOTcxXvtKPG-9" parent="1" target="yQlT2WHKgpOTcxXvtKPG-11">
          <mxGeometry relative="1" as="geometry">
            <mxPoint x="195" y="310" as="targetPoint" />
          </mxGeometry>
        </mxCell>
        <mxCell id="yQlT2WHKgpOTcxXvtKPG-11" value="Sensor detects threat?" style="rhombus;whiteSpace=wrap;html=1;fontColor=#000000;fillColor=#ffffc0;strokeColor=#ff0000;" vertex="1" parent="1">
          <mxGeometry x="128.5" y="290" width="133" height="75" as="geometry" />
        </mxCell>
        <mxCell id="yQlT2WHKgpOTcxXvtKPG-12" value="no" style="edgeStyle=orthogonalEdgeStyle;html=1;align=left;verticalAlign=bottom;endArrow=open;endSize=8;strokeColor=#ff0000;rounded=0;entryX=1;entryY=0.5;entryDx=0;entryDy=0;" edge="1" source="yQlT2WHKgpOTcxXvtKPG-11" parent="1" target="yQlT2WHKgpOTcxXvtKPG-9">
          <mxGeometry x="-1" relative="1" as="geometry">
            <mxPoint x="350" y="390" as="targetPoint" />
            <Array as="points">
              <mxPoint x="290" y="330" />
              <mxPoint x="290" y="220" />
            </Array>
          </mxGeometry>
        </mxCell>
        <mxCell id="yQlT2WHKgpOTcxXvtKPG-14" value="Threat assigned to ACI" style="rhombus;whiteSpace=wrap;html=1;fontColor=#000000;fillColor=#ffffc0;strokeColor=#ff0000;" vertex="1" parent="1">
          <mxGeometry x="152.5" y="490" width="85" height="70" as="geometry" />
        </mxCell>
        <mxCell id="yQlT2WHKgpOTcxXvtKPG-15" value="no" style="edgeStyle=orthogonalEdgeStyle;html=1;align=left;verticalAlign=bottom;endArrow=open;endSize=8;strokeColor=#ff0000;rounded=0;entryX=1;entryY=0.5;entryDx=0;entryDy=0;" edge="1" source="yQlT2WHKgpOTcxXvtKPG-14" parent="1" target="yQlT2WHKgpOTcxXvtKPG-9">
          <mxGeometry x="-1" relative="1" as="geometry">
            <mxPoint x="340" y="520" as="targetPoint" />
            <Array as="points">
              <mxPoint x="300" y="525" />
              <mxPoint x="300" y="220" />
            </Array>
          </mxGeometry>
        </mxCell>
        <mxCell id="yQlT2WHKgpOTcxXvtKPG-18" value="Audit threat" style="rounded=1;whiteSpace=wrap;html=1;arcSize=40;fontColor=#000000;fillColor=#ffffc0;strokeColor=#ff0000;" vertex="1" parent="1">
          <mxGeometry x="135" y="410" width="120" height="40" as="geometry" />
        </mxCell>
        <mxCell id="yQlT2WHKgpOTcxXvtKPG-19" value="" style="edgeStyle=orthogonalEdgeStyle;html=1;verticalAlign=bottom;endArrow=open;endSize=8;strokeColor=#ff0000;rounded=0;entryX=0.5;entryY=0;entryDx=0;entryDy=0;" edge="1" source="yQlT2WHKgpOTcxXvtKPG-18" parent="1" target="yQlT2WHKgpOTcxXvtKPG-14">
          <mxGeometry relative="1" as="geometry">
            <mxPoint x="200" y="520" as="targetPoint" />
          </mxGeometry>
        </mxCell>
        <mxCell id="yQlT2WHKgpOTcxXvtKPG-20" value="yes" style="edgeStyle=orthogonalEdgeStyle;html=1;verticalAlign=bottom;endArrow=open;endSize=8;strokeColor=#ff0000;rounded=0;entryX=0.5;entryY=0;entryDx=0;entryDy=0;" edge="1" parent="1" target="yQlT2WHKgpOTcxXvtKPG-18">
          <mxGeometry relative="1" as="geometry">
            <mxPoint x="194.86" y="415" as="targetPoint" />
            <mxPoint x="194.86" y="365" as="sourcePoint" />
          </mxGeometry>
        </mxCell>
        <mxCell id="yQlT2WHKgpOTcxXvtKPG-21" value="yes" style="edgeStyle=orthogonalEdgeStyle;html=1;verticalAlign=bottom;endArrow=open;endSize=8;strokeColor=#ff0000;rounded=0;entryX=0.5;entryY=0;entryDx=0;entryDy=0;" edge="1" parent="1">
          <mxGeometry relative="1" as="geometry">
            <mxPoint x="194.82" y="605" as="targetPoint" />
            <mxPoint x="194.68" y="560" as="sourcePoint" />
          </mxGeometry>
        </mxCell>
        <mxCell id="yQlT2WHKgpOTcxXvtKPG-22" value="Launch ACI in SoC" style="rounded=1;whiteSpace=wrap;html=1;arcSize=40;fontColor=#000000;fillColor=#ffffc0;strokeColor=#ff0000;" vertex="1" parent="1">
          <mxGeometry x="142" y="610" width="120" height="40" as="geometry" />
        </mxCell>
        <mxCell id="yQlT2WHKgpOTcxXvtKPG-23" value="" style="edgeStyle=orthogonalEdgeStyle;html=1;verticalAlign=bottom;endArrow=open;endSize=8;strokeColor=#ff0000;rounded=0;entryX=1;entryY=0.5;entryDx=0;entryDy=0;" edge="1" source="yQlT2WHKgpOTcxXvtKPG-22" parent="1" target="yQlT2WHKgpOTcxXvtKPG-9">
          <mxGeometry relative="1" as="geometry">
            <mxPoint x="202" y="710" as="targetPoint" />
            <Array as="points">
              <mxPoint x="310" y="630" />
              <mxPoint x="310" y="220" />
            </Array>
          </mxGeometry>
        </mxCell>
      </root>
    </mxGraphModel>
  </diagram>
  <diagram id="Rcm9CQ2i7EpdMOVyv4SG" name="Threat processing workflow">
    <mxGraphModel dx="988" dy="570" grid="1" gridSize="10" guides="1" tooltips="1" connect="1" arrows="1" fold="1" page="1" pageScale="1" pageWidth="850" pageHeight="1100" math="0" shadow="0">
      <root>
        <mxCell id="0" />
        <mxCell id="1" parent="0" />
        <mxCell id="yVdGwRPTcm4bN8yNcknJ-1" value="" style="ellipse;html=1;shape=startState;fillColor=#000000;strokeColor=#ff0000;" vertex="1" parent="1">
          <mxGeometry x="130" y="40" width="30" height="30" as="geometry" />
        </mxCell>
        <mxCell id="yVdGwRPTcm4bN8yNcknJ-2" value="" style="edgeStyle=orthogonalEdgeStyle;html=1;verticalAlign=bottom;endArrow=open;endSize=8;strokeColor=#ff0000;rounded=0;" edge="1" source="yVdGwRPTcm4bN8yNcknJ-1" parent="1">
          <mxGeometry relative="1" as="geometry">
            <mxPoint x="145" y="130" as="targetPoint" />
          </mxGeometry>
        </mxCell>
        <mxCell id="yVdGwRPTcm4bN8yNcknJ-3" value="CA logs into SoC" style="rounded=1;whiteSpace=wrap;html=1;arcSize=40;fontColor=#000000;fillColor=#ffffc0;strokeColor=#ff0000;" vertex="1" parent="1">
          <mxGeometry x="85" y="130" width="120" height="40" as="geometry" />
        </mxCell>
        <mxCell id="yVdGwRPTcm4bN8yNcknJ-4" value="" style="edgeStyle=orthogonalEdgeStyle;html=1;verticalAlign=bottom;endArrow=open;endSize=8;strokeColor=#ff0000;rounded=0;" edge="1" source="yVdGwRPTcm4bN8yNcknJ-3" parent="1">
          <mxGeometry relative="1" as="geometry">
            <mxPoint x="145" y="230" as="targetPoint" />
          </mxGeometry>
        </mxCell>
        <mxCell id="yVdGwRPTcm4bN8yNcknJ-5" value="ACI&#39;s active" style="rhombus;whiteSpace=wrap;html=1;fontColor=#000000;fillColor=#ffffc0;strokeColor=#ff0000;" vertex="1" parent="1">
          <mxGeometry x="95" y="230" width="100" height="70" as="geometry" />
        </mxCell>
        <mxCell id="yVdGwRPTcm4bN8yNcknJ-6" value="no" style="edgeStyle=orthogonalEdgeStyle;html=1;align=left;verticalAlign=bottom;endArrow=open;endSize=8;strokeColor=#ff0000;rounded=0;entryX=0;entryY=0.5;entryDx=0;entryDy=0;" edge="1" source="yVdGwRPTcm4bN8yNcknJ-5" parent="1" target="yVdGwRPTcm4bN8yNcknJ-8">
          <mxGeometry x="-1" relative="1" as="geometry">
            <mxPoint x="290" y="270" as="targetPoint" />
            <Array as="points">
              <mxPoint x="300" y="265" />
              <mxPoint x="300" y="265" />
            </Array>
          </mxGeometry>
        </mxCell>
        <mxCell id="yVdGwRPTcm4bN8yNcknJ-7" value="yes" style="edgeStyle=orthogonalEdgeStyle;html=1;align=left;verticalAlign=top;endArrow=open;endSize=8;strokeColor=#ff0000;rounded=0;" edge="1" source="yVdGwRPTcm4bN8yNcknJ-5" parent="1">
          <mxGeometry x="-1" relative="1" as="geometry">
            <mxPoint x="145" y="360" as="targetPoint" />
            <Array as="points">
              <mxPoint x="145" y="350" />
            </Array>
          </mxGeometry>
        </mxCell>
        <mxCell id="yVdGwRPTcm4bN8yNcknJ-8" value="Review threat audit" style="rounded=1;whiteSpace=wrap;html=1;arcSize=40;fontColor=#000000;fillColor=#ffffc0;strokeColor=#ff0000;" vertex="1" parent="1">
          <mxGeometry x="300" y="245" width="120" height="40" as="geometry" />
        </mxCell>
        <mxCell id="yVdGwRPTcm4bN8yNcknJ-9" value="" style="edgeStyle=orthogonalEdgeStyle;html=1;verticalAlign=bottom;endArrow=open;endSize=8;strokeColor=#ff0000;rounded=0;entryX=0.5;entryY=0;entryDx=0;entryDy=0;" edge="1" source="yVdGwRPTcm4bN8yNcknJ-8" parent="1" target="yVdGwRPTcm4bN8yNcknJ-10">
          <mxGeometry relative="1" as="geometry">
            <mxPoint x="360" y="350" as="targetPoint" />
          </mxGeometry>
        </mxCell>
        <mxCell id="yVdGwRPTcm4bN8yNcknJ-10" value="" style="ellipse;html=1;shape=endState;fillColor=#000000;strokeColor=#ff0000;" vertex="1" parent="1">
          <mxGeometry x="345" y="365" width="30" height="30" as="geometry" />
        </mxCell>
        <mxCell id="yVdGwRPTcm4bN8yNcknJ-11" value="Review forensics provided by ACI" style="rounded=1;whiteSpace=wrap;html=1;arcSize=40;fontColor=#000000;fillColor=#ffffc0;strokeColor=#ff0000;" vertex="1" parent="1">
          <mxGeometry x="85" y="360" width="120" height="40" as="geometry" />
        </mxCell>
        <mxCell id="yVdGwRPTcm4bN8yNcknJ-13" value="" style="edgeStyle=orthogonalEdgeStyle;html=1;verticalAlign=bottom;endArrow=open;endSize=8;strokeColor=#ff0000;rounded=0;entryX=0;entryY=0.5;entryDx=0;entryDy=0;exitX=1;exitY=0.5;exitDx=0;exitDy=0;" edge="1" parent="1" source="yVdGwRPTcm4bN8yNcknJ-11" target="yVdGwRPTcm4bN8yNcknJ-10">
          <mxGeometry relative="1" as="geometry">
            <mxPoint x="370" y="360" as="targetPoint" />
            <mxPoint x="370" y="295" as="sourcePoint" />
          </mxGeometry>
        </mxCell>
      </root>
    </mxGraphModel>
  </diagram>
</mxfile>
